#!OML:ASF H:\ManfredETheater\Project 1\Capture day 1\Session 1\subject.ASF
:FULLY-SPECIFIED
:DEGREES
241
root -6.3637 9.29183 -5.25836 -23.9187 67.9343 -29.9597
lowerback 60.8149 -1.89413 -2.19078
upperback 14.0204 -0.444358 4.24793
thorax -5.67999 0.175623 5.77585
lowerneck 8.26763 -16.9203 -14.1168
upperneck -15.3742 -22.6027 23.5849
head -1.33746 -12.2806 9.42879
rclavicle -6.36111e-014 3.26007e-014
rhumerus -24.3814 -4.68281 -66.6409
rradius 92.7545
rwrist -18.1523
rhand -21.8745 -8.04783
rfingers 7.12502
rthumb 4.52996 -37.9794
lclavicle -6.36111e-014 3.26007e-014
lhumerus -10.339 9.98708 30.7975
lradius 92.6363
lwrist 7.08359
lhand -23.0876 -3.55131
lfingers 7.12502
lthumb 3.35854 26.402
rfemur -78.375 -33.9281 0.593528
rtibia 109.484
rfoot -17.9895 11.3876
rtoes -42.14
lfemur -88.3117 49.0713 5.75941
ltibia 133.259
lfoot -35.8744 -37.2683
ltoes -13.975
242
root -6.37048 9.21819 -5.15031 -23.4001 67.9839 -29.178
lowerback 60.8542 -1.83515 -2.49824
upperback 14.0447 -0.581281 4.04296
thorax -5.63058 0.12154 5.7392
lowerneck 8.29333 -17.0099 -14.2559
upperneck -15.2432 -22.7624 23.6152
head -1.25417 -12.3537 9.42711
rclavicle 3.97569e-014 -6.24184e-014
rhumerus -24.4895 -4.69859 -66.6357
rradius 92.9768
rwrist -18.1905
rhand -21.8785 -8.26307
rfingers 7.12502
rthumb 4.52606 -38.1947
lclavicle 3.97569e-014 -6.24184e-014
lhumerus -9.78314 10.2624 30.3548
lradius 92.2352
lwrist 7.07482
lhand -23.5682 -3.4669
lfingers 7.12502
lthumb 2.89437 26.4932
rfemur -77.6025 -33.5681 -0.483326
rtibia 108.236
rfoot -18.2693 11.8882
rtoes -43.4522
lfemur -87.5833 49.7917 6.94126
ltibia 133.264
lfoot -36.1558 -38.4179
ltoes -14.4696
243
root -6.3783 9.14235 -5.04347 -23.049 68.1907 -28.5674
lowerback 60.9239 -1.94165 -2.66211
upperback 14.0493 -0.814572 3.82337
thorax -5.59697 0.032171 5.66377
lowerneck 8.32987 -17.0895 -14.4117
upperneck -15.0654 -22.9165 23.6275
head -1.16061 -12.4218 9.42046
rclavicle -3.02153e-014 -6.36111e-015
rhumerus -24.5659 -4.75566 -66.6345
rradius 93.1764
rwrist -18.26
rhand -21.883 -8.48393
rfingers 7.12502
rthumb 4.52172 -38.4157
lclavicle -3.02153e-014 -6.36111e-015
lhumerus -9.27044 10.4662 29.9341
lradius 91.8223
lwrist 7.0576
lhand -24.0459 -3.41948
lfingers 7.12502
lthumb 2.43305 26.5464
rfemur -77.0964 -33.7029 -1.26467
rtibia 107.646
rfoot -18.6546 11.9984
rtoes -44.2823
lfemur -87.003 50.3025 7.985
ltibia 133.267
lfoot -36.3966 -39.4855
ltoes -14.8638
244
root -6.38785 9.06556 -4.93656 -22.8371 68.5147 -28.0588
lowerback 61.0731 -2.15353 -2.74191
upperback 14.0294 -1.11128 3.59615
thorax -5.58927 -0.0797246 5.56978
lowerneck 8.38778 -17.1624 -14.5638
upperneck -14.8537 -23.0668 23.6194
head -1.06481 -12.4872 9.40804
rclavicle -1.74931e-014 5.08889e-014
rhumerus -24.6191 -4.85008 -66.6485
rradius 93.3501
rwrist -18.3559
rhand -21.871 -8.70033
rfingers 7.12502
rthumb 4.53329 -38.6318
lclavicle -1.74931e-014 5.08889e-014
lhumerus -8.82005 10.5738 29.5076
lradius 91.4268
lwrist 7.04474
lhand -24.4949 -3.40113
lfingers 7.12502
lthumb 1.9994 26.5693
rfemur -76.8464 -34.2352 -1.8066
rtibia 107.686
rfoot -19.1526 11.8211
rtoes -44.7602
lfemur -86.5043 50.6518 8.93341
ltibia 133.271
lfoot -36.5695 -40.4618
ltoes -15.1689
245
root -6.39976 8.98984 -4.82833 -22.7635 68.8954 -27.6043
lowerback 61.3672 -2.40075 -2.78923
upperback 13.9834 -1.42077 3.37693
thorax -5.61431 -0.193698 5.47618
lowerneck 8.45255 -17.2402 -14.7056
upperneck -14.6224 -23.2256 23.5989
head -0.965915 -12.5567 9.38913
rclavicle 3.02153e-014 -5.80451e-014
rhumerus -24.6485 -4.9876 -66.6656
rradius 93.5006
rwrist -18.4739
rhand -21.8548 -8.89232
rfingers 7.12502
rthumb 4.54901 -38.8235
lclavicle 3.02153e-014 -5.80451e-014
lhumerus -8.42346 10.5818 29.0768
lradius 91.065
lwrist 7.03963
lhand -24.8865 -3.42962
lfingers 7.12502
lthumb 1.62119 26.544
rfemur -76.7968 -35.0126 -2.16799
rtibia 108.258
rfoot -19.6886 11.567
rtoes -44.7927
lfemur -85.9671 50.9027 9.88352
ltibia 133.271
lfoot -36.6776 -41.3496
ltoes -15.4144
246
root -6.41402 8.91648 -4.71797 -22.7829 69.2902 -27.1249
lowerback 61.8469 -2.62681 -2.86049
upperback 13.9117 -1.71191 3.17319
thorax -5.67213 -0.297704 5.4029
lowerneck 8.52049 -17.3312 -14.8264
upperneck -14.3932 -23.4005 23.5703
head -0.86887 -12.6351 9.36396
rclavicle -1.27222e-014 3.10104e-014
rhumerus -24.6498 -5.15937 -66.6866
rradius 93.6331
rwrist -18.6032
rhand -21.8469 -9.05564
rfingers 7.12502
rthumb 4.55663 -38.9866
lclavicle -1.27222e-014 3.10104e-014
lhumerus -8.08712 10.4957 28.6326
lradius 90.7505
lwrist 7.02949
lhand -25.2059 -3.50142
lfingers 7.12502
lthumb 1.31271 26.4743
rfemur -76.8798 -35.904 -2.41228
rtibia 109.212
rfoot -20.2298 11.3773
rtoes -44.5214
lfemur -85.2875 51.0883 10.9022
ltibia 133.26
lfoot -36.7491 -42.1295
ltoes -15.6666
247
root -6.43007 8.84508 -4.60569 -22.8384 69.6762 -26.5958
lowerback 62.4646 -2.81197 -2.96899
upperback 13.8245 -1.97252 2.98911
thorax -5.74894 -0.387673 5.35467
lowerneck 8.59844 -17.4375 -14.9194
upperneck -14.1929 -23.5915 23.543
head -0.781939 -12.724 9.33703
rclavicle -7.95139e-015 -2.06736e-014
rhumerus -24.6194 -5.35504 -66.7069
rradius 93.7547
rwrist -18.7249
rhand -21.8721 -9.19698
rfingers 7.12502
rthumb 4.53228 -39.1285
lclavicle -7.95139e-015 -2.06736e-014
lhumerus -7.81595 10.3275 28.1755
lradius 90.4963
lwrist 7.00249
lhand -25.4395 -3.64813
lfingers 7.12502
lthumb 1.08713 26.3288
rfemur -77.0702 -36.8333 -2.57195
rtibia 110.404
rfoot -20.7133 11.286
rtoes -44.0323
lfemur -84.5008 51.2398 11.9799
ltibia 133.241
lfoot -36.7652 -42.8289
ltoes -15.9133
248
root -6.44731 8.77585 -4.49224 -22.8518 70.0385 -25.9876
lowerback 63.148 -2.94898 -3.11634
upperback 13.7356 -2.19873 2.82537
thorax -5.8264 -0.463166 5.33059
lowerneck 8.68721 -17.5604 -14.9791
upperneck -14.0414 -23.7977 23.5181
head -0.711675 -12.8238 9.3097
rclavicle 7.95139e-015 -9.85972e-014
rhumerus -24.5516 -5.57097 -66.7192
rradius 93.8759
rwrist -18.815
rhand -21.9454 -9.33131
rfingers 7.12502
rthumb 4.46152 -39.2643
lclavicle 7.95139e-015 -9.85972e-014
lhumerus -7.60901 10.0951 27.7137
lradius 90.3065
lwrist 6.93068
lhand -25.5951 -3.85169
lfingers 7.12502
lthumb 0.936791 26.126
rfemur -77.3383 -37.7306 -2.69134
rtibia 111.698
rfoot -21.1408 11.2719
rtoes -43.4326
lfemur -83.6602 51.3716 13.0778
ltibia 133.214
lfoot -36.7402 -43.4466
ltoes -16.1949
249
root -6.46514 8.70902 -4.37869 -22.7066 70.3699 -25.2394
lowerback 63.8069 -3.03754 -3.3122
upperback 13.6643 -2.4007 2.67329
thorax -5.88081 -0.530137 5.32859
lowerneck 8.78306 -17.6964 -15.008
upperneck -13.9428 -24.014 23.502
head -0.658417 -12.9318 9.28451
rclavicle -5.08889e-014 1.06549e-013
rhumerus -24.4329 -5.79003 -66.7339
rradius 94.0012
rwrist -18.8634
rhand -22.0998 -9.46685
rfingers 7.12502
rthumb 4.31244 -39.4029
lclavicle -5.08889e-014 1.06549e-013
lhumerus -7.47728 9.82705 27.2424
lradius 90.1781
lwrist 6.78513
lhand -25.6829 -4.1135
lfingers 7.12502
lthumb 0.851984 25.8645
rfemur -77.6689 -38.5423 -2.80145
rtibia 112.982
rfoot -21.5512 11.3144
rtoes -42.6377
lfemur -82.8163 51.4813 14.1412
ltibia 133.175
lfoot -36.6854 -43.9763
ltoes -16.5185
250
root -6.48323 8.64513 -4.26602 -22.339 70.6639 -24.339
lowerback 64.3836 -3.08913 -3.53716
upperback 13.6136 -2.58356 2.52718
thorax -5.90965 -0.591013 5.33598
lowerneck 8.89323 -17.842 -15.0161
upperneck -13.9054 -24.2362 23.5054
head -0.623616 -13.0468 9.26749
rclavicle 1.74931e-014 3.73715e-014
rhumerus -24.2667 -6.01225 -66.7507
rradius 94.1357
rwrist -18.8638
rhand -22.3375 -9.61621
rfingers 7.12502
rthumb 4.08289 -39.5568
lclavicle 1.74931e-014 3.73715e-014
lhumerus -7.41006 9.53704 26.779
lradius 90.0989
lwrist 6.54116
lhand -25.7384 -4.43635
lfingers 7.12502
lthumb 0.798403 25.5419
rfemur -78.0256 -39.2206 -2.91839
rtibia 114.175
rfoot -22.0631 11.1511
rtoes -42.2467
lfemur -82.0266 51.5835 15.1202
ltibia 133.114
lfoot -36.6356 -44.4203
ltoes -16.9219
251
root -6.50105 8.58501 -4.15493 -21.6514 70.9286 -23.2285
lowerback 64.8197 -3.11407 -3.79776
upperback 13.5908 -2.76593 2.37601
thorax -5.90509 -0.654715 5.35108
lowerneck 8.99984 -17.9938 -15.0073
upperneck -13.898 -24.4616 23.5173
head -0.597117 -13.1652 9.25213
rclavicle 7.95139e-015 -2.46493e-014
rhumerus -24.0492 -6.22517 -66.784
rradius 94.2764
rwrist -18.8171
rhand -22.6569 -9.78284
rfingers 7.12502
rthumb 3.77439 -39.7292
lclavicle 7.95139e-015 -2.46493e-014
lhumerus -7.41603 9.24325 26.3203
lradius 90.0597
lwrist 6.19066
lhand -25.7789 -4.78119
lfingers 7.12502
lthumb 0.759302 25.1972
rfemur -78.4102 -39.7882 -3.10834
rtibia 115.282
rfoot -22.6553 10.9994
rtoes -41.8969
lfemur -81.3244 51.6638 15.9577
ltibia 133.024
lfoot -36.5922 -44.786
ltoes -17.3598
252
root -6.51854 8.52994 -4.04586 -20.6773 71.1782 -21.9421
lowerback 65.1323 -3.13218 -4.07095
upperback 13.5869 -2.95427 2.22013
thorax -5.87868 -0.723103 5.36764
lowerneck 9.09008 -18.1504 -14.9811
upperneck -13.8977 -24.6893 23.5262
head -0.572335 -13.2848 9.23224
rclavicle -2.06736e-014 1.82882e-014
rhumerus -23.7912 -6.43566 -66.8301
rradius 94.4208
rwrist -18.7367
rhand -23.04 -9.95418
rfingers 7.12502
rthumb 3.40448 -39.9067
lclavicle -2.06736e-014 1.82882e-014
lhumerus -7.47442 8.94803 25.881
lradius 90.0416
lwrist 5.74723
lhand -25.8272 -5.13771
lfingers 7.12502
lthumb 0.712621 24.8408
rfemur -78.8122 -40.2716 -3.34812
rtibia 116.301
rfoot -23.3824 10.8181
rtoes -41.7569
lfemur -80.7046 51.675 16.646
ltibia 132.891
lfoot -36.5885 -45.0593
ltoes -17.8546
253
root -6.53599 8.48137 -3.93899 -19.4554 71.4307 -20.4943
lowerback 65.374 -3.16464 -4.34078
upperback 13.5853 -3.16106 2.05548
thorax -5.84905 -0.799607 5.37994
lowerneck 9.15978 -18.3101 -14.9502
upperneck -13.8867 -24.9198 23.5329
head -0.541732 -13.4047 9.2075
rclavicle 3.18055e-015 6.20208e-014
rhumerus -23.5078 -6.64272 -66.89
rradius 94.5645
rwrist -18.6443
rhand -23.4763 -10.1109
rfingers 7.12502
rthumb 2.98315 -40.0698
lclavicle 3.18055e-015 6.20208e-014
lhumerus -7.56977 8.65323 25.4693
lradius 90.0239
lwrist 5.24223
lhand -25.8892 -5.47256
lfingers 7.12502
lthumb 0.652714 24.5062
rfemur -79.2104 -40.6987 -3.63296
rtibia 117.243
rfoot -24.1905 10.6708
rtoes -41.6584
lfemur -80.1372 51.5614 17.1869
ltibia 132.706
lfoot -36.6325 -45.2267
ltoes -18.3829
